<svg width="130" height="131" viewBox="0 0 130 131" fill="none" xmlns="http://www.w3.org/2000/svg">
<path fill-rule="evenodd" clip-rule="evenodd" d="M65 130C100.899 130 130 100.899 130 65C130 29.1015 100.899 0 65 0C29.1015 0 0 29.1015 0 65C0 80.5448 2.3975 91.3152 11.5 102.5C47.0823 88.9353 57.6544 82.2026 69.5674 65.9769C70.5119 64.6905 72.5 62 72.5 62L44 58.5C69.5674 53.5 72.5 46.5 92.5 23.5C95.5 45 97 53.5 100 67L83 64C72.5 95.5 62.5 107.5 40.5 126.5C52.5 130.5 65 130 65 130Z" fill="#B0C485"/>
</svg>
